<?xml version="1.0" encoding="iso-8859-1"?>
<!-- Generator: Adobe Illustrator 19.0.0, SVG Export Plug-In . SVG Version: 6.00 Build 0)  -->
<svg version="1.1" id="Layer_1" xmlns="http://www.w3.org/2000/svg" xmlns:xlink="http://www.w3.org/1999/xlink" x="0px" y="0px"
	 viewBox="0 0 511.99 511.99" style="enable-background:new 0 0 511.99 511.99;" xml:space="preserve">
<g>
	<path style="fill:#9B5C5C;" d="M277.259,58.637c-11.695-20.344-30.835-20.344-42.53,0L4.978,432.587
		c-11.695,20.342-2.07,36.966,21.398,36.966h459.235c23.468,0,33.093-16.624,21.405-36.966L277.259,58.637z"/>
	<path style="fill:#9B5C5C;" d="M277.259,57.683c-11.695-20.328-30.835-20.328-42.53,0l-23.538,59.732l-32.538,31.78L4.978,432.587
		c-11.695,20.342-2.07,36.966,21.398,36.966h459.235c23.468,0,33.093-16.624,21.405-36.966l-56.124-91.592l-84.06-104.052
		L277.259,57.683z"/>
</g>
<g>
	<path style="fill:#CBD0D8;" d="M426.629,226.272c-23.562,0-42.671,19.108-42.671,42.671c0,23.554,19.109,42.646,42.671,42.646
		c23.545,0,42.654-19.093,42.654-42.646C469.283,245.381,450.174,226.272,426.629,226.272L426.629,226.272z"/>
	<path style="fill:#CBD0D8;" d="M394.63,226.272c0,5.89-4.766,10.671-10.672,10.671c-5.875,0-10.656-4.781-10.656-10.671
		c0-5.875,4.781-10.656,10.656-10.656C389.864,215.616,394.63,220.397,394.63,226.272z"/>
	<path style="fill:#CBD0D8;" d="M426.629,204.944c0,5.891-4.781,10.672-10.671,10.672c-5.891,0-10.656-4.781-10.656-10.672
		s4.766-10.655,10.656-10.655C421.848,194.289,426.629,199.054,426.629,204.944z"/>
	<path style="fill:#CBD0D8;" d="M383.958,183.617c0,5.891-4.766,10.672-10.656,10.672s-10.656-4.781-10.656-10.672
		s4.766-10.656,10.656-10.656S383.958,177.726,383.958,183.617z"/>
	<path style="fill:#CBD0D8;" d="M351.974,151.634c0,5.891-4.766,10.655-10.672,10.655c-5.874,0-10.655-4.765-10.655-10.655
		s4.781-10.671,10.655-10.671C347.209,140.963,351.974,145.744,351.974,151.634z"/>
</g>
<path style="fill:#E6E9ED;" d="M273.368,152.384c1.281-0.516,2.625-0.75,3.953-0.75c3.671,0,7.233,1.906,9.202,5.25
	c0,0,69.342,100.31,95.263,143.457c25.922,43.154,69.106,40.686,69.106,40.686L277.259,57.683c-11.695-20.328-30.835-20.328-42.53,0
	l-56.076,91.513c0,0,32.226,22.343,46.85,22.343C240.126,171.539,273.368,152.384,273.368,152.384z"/>
<g>
</g>
<g>
</g>
<g>
</g>
<g>
</g>
<g>
</g>
<g>
</g>
<g>
</g>
<g>
</g>
<g>
</g>
<g>
</g>
<g>
</g>
<g>
</g>
<g>
</g>
<g>
</g>
<g>
</g>
</svg>
