<?xml version="1.0" encoding="iso-8859-1"?>
<!-- Generator: Adobe Illustrator 21.0.0, SVG Export Plug-In . SVG Version: 6.00 Build 0)  -->
<svg version="1.1" id="Capa_1" xmlns="http://www.w3.org/2000/svg" xmlns:xlink="http://www.w3.org/1999/xlink" x="0px" y="0px"
	 viewBox="0 0 512 512" style="enable-background:new 0 0 512 512;" xml:space="preserve">
<path style="fill:#4895FF;" d="M317.538,248.672c-8.157,0-14.769-6.613-14.769-14.769V118.16c0-8.157,6.613-14.769,14.769-14.769
	s14.769,6.613,14.769,14.769v115.743C332.307,242.059,325.694,248.672,317.538,248.672z"/>
<path style="fill:#046EFF;" d="M332.307,233.903V118.16c0-8.157-6.613-14.769-14.769-14.769v145.281
	C325.694,248.672,332.307,242.059,332.307,233.903z"/>
<path style="fill:#946655;" d="M508.2,423.349L328.508,224.013c-2.801-3.106-6.788-4.88-10.971-4.88
	c-4.183,0-8.169,1.774-10.971,4.88L202.662,339.278l-55.551-72.556c-2.794-3.651-7.13-5.791-11.727-5.791
	c-4.597,0-8.931,2.141-11.727,5.791L3.042,424.26c-3.417,4.462-4.003,10.478-1.515,15.518s7.622,8.229,13.242,8.229H497.23
	c5.835,0,11.122-3.434,13.494-8.766C513.095,433.91,512.107,427.683,508.2,423.349z"/>
<path style="fill:#774C3E;" d="M497.23,448.006c5.835,0,11.122-3.434,13.494-8.766c2.371-5.331,1.382-11.557-2.524-15.892
	L328.509,224.013c-2.801-3.106-6.788-4.88-10.971-4.88v228.873L497.23,448.006L497.23,448.006z"/>
<path style="fill:#EDEEF0;" d="M401.69,305.194l-73.182-81.181c-2.801-3.106-6.788-4.88-10.971-4.88
	c-4.183,0-8.169,1.774-10.971,4.881l-73.181,81.181c-3.907,4.333-4.896,10.561-2.524,15.892c2.372,5.332,7.659,8.766,13.494,8.766
	h146.362c5.835,0,11.122-3.434,13.494-8.766C406.585,315.756,405.596,309.529,401.69,305.194z"/>
<path style="fill:#D8D9DD;" d="M390.719,329.853c5.835,0,11.122-3.434,13.494-8.766c2.371-5.331,1.382-11.557-2.524-15.893
	l-73.182-81.181c-2.801-3.106-6.788-4.88-10.971-4.88v110.719L390.719,329.853L390.719,329.853z"/>
<path style="fill:#E50058;" d="M457.97,114.112L322.585,64.881c-4.526-1.645-9.574-0.981-13.52,1.783
	c-3.946,2.765-6.297,7.279-6.297,12.097v98.462c0,4.819,2.35,9.333,6.297,12.097c2.518,1.763,5.481,2.672,8.474,2.672
	c1.699,0,3.407-0.293,5.046-0.889l135.385-49.231c5.837-2.122,9.722-7.669,9.722-13.88
	C467.692,121.781,463.806,116.233,457.97,114.112z"/>
<path style="fill:#C50048;" d="M457.97,114.112L322.585,64.881c-1.639-0.596-3.348-0.879-5.047-0.879v127.989h0.001
	c1.699,0,3.407-0.293,5.046-0.889l135.385-49.231c5.837-2.122,9.722-7.669,9.722-13.88
	C467.692,121.78,463.806,116.233,457.97,114.112z"/>
<g>
</g>
<g>
</g>
<g>
</g>
<g>
</g>
<g>
</g>
<g>
</g>
<g>
</g>
<g>
</g>
<g>
</g>
<g>
</g>
<g>
</g>
<g>
</g>
<g>
</g>
<g>
</g>
<g>
</g>
</svg>
