<?xml version="1.0" encoding="iso-8859-1"?>
<!-- Generator: Adobe Illustrator 19.0.0, SVG Export Plug-In . SVG Version: 6.00 Build 0)  -->
<svg version="1.1" id="Layer_1" xmlns="http://www.w3.org/2000/svg" xmlns:xlink="http://www.w3.org/1999/xlink" x="0px" y="0px"
	 viewBox="0 0 511.984 511.984" style="enable-background:new 0 0 511.984 511.984;" xml:space="preserve">
<rect x="240.732" y="186.242" style="fill:#CCD1D9;" width="39.01" height="172.74"/>
<polygon style="fill:#FFE1C5;" points="163.486,55.498 133.987,18.499 93.488,11.999 56.489,22.999 33.99,77.497 37.49,432.486 
	41.49,487.484 61.489,498.984 74.489,483.484 77.489,458.705 79.989,75.997 91.488,58.498 106.988,57.498 117.987,68.498 
	119.987,103.996 121.487,487.484 154.486,501.984 166.486,475.985 "/>
<path style="fill:#5D9CEC;" d="M480.654,129.996c-3.998-1.328-35.342-26-35.342-26s-47.342-8.671-51.998-8.671s-55.998,14-55.998,14
	l-84.661,38.671l-15.343,23.327l3.344,12.671l42.006-1.328l100.652-39.342l24-3.328l20.67,10.671l4.672,28.656L364.658,390.66
	l-15.342,12.655l-66.654-39.327l-40.678,3.328l10.671,24.672l48.005,39.326l45.328,12.672l36.67-7.328l58.654-101.34l28.672-78.326
	c0,0,10.014-73.67,10.67-75.67C481.31,179.323,484.654,131.324,480.654,129.996z"/>
<rect x="221.332" y="230.662" style="fill:#E6E9ED;" width="68" height="75.33"/>
<path d="M483.795,137.652c-3.594-14.921-10.357-26.515-20.107-34.468c-15.922-12.953-36.109-19.53-59.998-19.53
	c-29.797,0-65.826,10.375-107.076,30.843c-30.287,15.031-52.677,30.265-55.129,31.952c-8.688,5.984-13.859,15.828-13.859,26.358
	v40.53c-5.89,0-10.671,4.766-10.671,10.656v85.341c0,5.875,4.781,10.656,10.671,10.656v50.139c0,8.484,3.281,16.469,9.25,22.5
	c0.625,0.641,15.703,15.843,35.756,31.201c30.654,23.469,56.42,34.875,78.795,34.875c2.904,0,5.779-0.188,8.561-0.562
	c13.031-1.812,25.625-9.359,37.406-22.469c9.703-10.781,19.295-25.608,29.326-45.311c15.328-30.094,30.547-70.248,41.719-110.153
	c10.139-36.124,16.389-69.529,18.092-96.591C487.701,165.213,486.795,150.182,483.795,137.652z M248.952,191.994h21.327v21.343
	h-21.327V191.994z M238.281,298.662L238.281,298.662c2.734,0,5.468-1.047,7.546-3.125c4.172-4.172,4.172-10.921,0-15.077
	c-2.078-2.094-4.812-3.125-7.546-3.125v-21.343c2.734,0,5.468-1.031,7.546-3.125c4.172-4.156,4.172-10.906,0-15.078
	c-2.078-2.078-4.812-3.125-7.531-3.125h42.663c-2.734,0-5.469,1.047-7.547,3.125c-4.164,4.172-4.164,10.921,0,15.078
	c2.094,2.094,4.812,3.125,7.547,3.125v21.343c-2.734,0-5.453,1.031-7.547,3.125c-4.164,4.156-4.164,10.905,0,15.077
	c2.094,2.078,4.812,3.125,7.547,3.125l0,0L238.281,298.662L238.281,298.662z M291.629,319.99c5.891,0,10.656-4.781,10.656-10.656
	v-85.341c0-5.891-4.766-10.656-10.656-10.656v-22.968c10.219-6.203,25.547-14.968,42.688-22.937
	c27.826-12.937,51.826-19.78,69.373-19.78c5.297,0,12.342,0.688,17.529,3.75c0.891,2.953,2.531,11.031,1.453,28.187
	c-1.422,22.312-7.047,51.92-15.857,83.341c-10.078,36.014-23.625,71.873-37.125,98.402c-10.328,20.25-17.688,29.312-21.186,32.938
	c-5.984-1.5-18.344-7.031-36.781-21.125c-7.844-5.984-14.844-12.031-20.094-16.797V319.99z M270.279,319.99v31.998h-21.327V319.99
	H270.279z M465.25,182.275c-1.625,25.593-7.625,57.467-17.344,92.185c-10.828,38.593-25.469,77.31-40.201,106.231
	c-18.188,35.701-34.75,54.123-50.625,56.311c-1.828,0.25-3.719,0.375-5.639,0.375c-0.016,0-0.016,0-0.016,0
	c-17.266,0-39.406-10.266-65.826-30.483c-18.836-14.437-32.976-28.655-33.569-29.265c-1.203-1.219-2.078-2.703-2.578-4.297h29.147
	c5.422,4.844,12.404,10.828,20.17,16.766c21.875,16.733,40.578,25.951,52.656,25.951c0,0,0,0,0.016,0
	c0.951,0,1.873-0.062,2.717-0.188c4.672-0.625,17.203-10.812,34.531-44.857c14.125-27.702,28.217-65.014,38.67-102.309
	c9.203-32.828,15.094-63.983,16.594-87.764c2.156-34.217-4.969-42.842-7.219-44.655c-8.094-6.593-19.219-9.953-33.045-9.953
	c-40.906,0-93.826,28.233-120.715,44.342H249.17c0.547-2.672,2.109-5.062,4.406-6.64c3.5-2.406,86.521-59.03,150.113-59.03
	c18.857,0,34.514,4.953,46.529,14.734C462.359,129.621,467.281,150.089,465.25,182.275z"/>
<path d="M267.154,259.117c-4.156-4.156-10.906-4.156-15.077,0c-4.172,4.172-4.172,10.922,0,15.093
	c4.171,4.156,10.921,4.156,15.077,0C271.326,270.039,271.326,263.289,267.154,259.117z"/>
<path d="M99.629,0c-41.171,0-74.67,33.499-74.67,74.669v405.315c0,17.656,14.359,32,31.999,32s31.999-14.344,31.999-32V74.669
	c0-5.89,4.781-10.671,10.672-10.671c5.875,0,10.656,4.781,10.656,10.671v405.315c0,17.656,14.359,32,31.999,32
	c17.656,0,31.999-14.344,31.999-32V74.669C174.283,33.499,140.799,0,99.629,0z M46.286,356.41l21.343,21.328v55.17l-21.343-21.327
	V356.41z M46.286,326.24v-55.154l21.343,21.326v55.171L46.286,326.24z M46.286,240.914v-55.17l21.343,21.343v55.155L46.286,240.914z
	 M67.63,176.916l-21.343-21.328v-55.17l21.343,21.327V176.916z M56.958,490.656c-5.875,0-10.671-4.797-10.671-10.672v-38.248
	l21.343,21.343v16.905C67.63,485.859,62.833,490.656,56.958,490.656z M99.629,42.67c-17.656,0-31.999,14.359-31.999,31.999V91.59
	L46.474,70.435c2.172-27.437,25.171-49.092,53.155-49.092c27.968,0,50.982,21.655,53.139,49.092l-21.14,21.156V74.669
	C131.628,57.029,117.268,42.67,99.629,42.67z M152.955,411.581l-21.327,21.327v-55.17l21.327-21.328V411.581z M152.955,326.24
	l-21.327,21.343v-55.171l21.327-21.326V326.24z M152.955,240.914l-21.327,21.328v-55.155l21.327-21.343V240.914z M152.955,155.589
	l-21.327,21.328v-55.17l21.327-21.327V155.589z M142.284,490.656c-5.875,0-10.656-4.797-10.656-10.672v-16.905l21.327-21.343v38.248
	C152.955,485.859,148.174,490.656,142.284,490.656z"/>
<g>
</g>
<g>
</g>
<g>
</g>
<g>
</g>
<g>
</g>
<g>
</g>
<g>
</g>
<g>
</g>
<g>
</g>
<g>
</g>
<g>
</g>
<g>
</g>
<g>
</g>
<g>
</g>
<g>
</g>
</svg>
