<?xml version="1.0" encoding="iso-8859-1"?>
<!-- Generator: Adobe Illustrator 19.0.0, SVG Export Plug-In . SVG Version: 6.00 Build 0)  -->
<svg version="1.1" id="Layer_1" xmlns="http://www.w3.org/2000/svg" xmlns:xlink="http://www.w3.org/1999/xlink" x="0px" y="0px"
	 viewBox="0 0 512 512" style="enable-background:new 0 0 512 512;" xml:space="preserve">
<g>
	<g>
		<path style="fill:#BDBFC1;" d="M442.576,377.492c-4.799,0-8.678-3.879-8.678-8.678c0-4.799,3.879-8.678,8.678-8.678
			c28.715,0,52.068-23.352,52.068-52.068c0-4.799,3.879-8.678,8.678-8.678c4.799,0,8.678,3.879,8.678,8.678
			C512,346.346,480.855,377.492,442.576,377.492"/>
		<path style="fill:#BDBFC1;" d="M442.576,377.492c-2.222,0-4.443-0.85-6.135-2.543l-52.068-52.068
			c-3.393-3.393-3.393-8.878,0-12.271c3.393-3.393,8.878-3.393,12.271,0l52.068,52.068c3.393,3.393,3.393,8.878,0,12.271
			C447.019,376.641,444.798,377.492,442.576,377.492"/>
		<path style="fill:#BDBFC1;" d="M442.576,377.492H303.729c-4.799,0-8.678-3.879-8.678-8.678c0-4.799,3.879-8.678,8.678-8.678
			h138.847c4.799,0,8.678,3.879,8.678,8.678C451.254,373.612,447.375,377.492,442.576,377.492"/>
		<path style="fill:#BDBFC1;" d="M347.119,203.932c-2.222,0-4.443-0.85-6.135-2.543l-26.034-26.034
			c-3.393-3.393-3.393-8.878,0-12.271c3.393-3.393,8.878-3.393,12.271,0l26.034,26.034c3.393,3.393,3.393,8.878,0,12.271
			C351.562,203.082,349.34,203.932,347.119,203.932"/>
	</g>
	<path style="fill:#BE3A2B;" d="M277.695,316.746L35.007,263.654C14.57,259.185,0,241.083,0,220.16v-12.618
		c0-6.239,5.866-10.821,11.924-9.311l50.115,12.531c27.96,6.994,56.667,10.526,85.487,10.526
		c-15.724-15.733-23.5-31.093-8.678-34.712c7.272-1.77,40.83,4.46,73.129,11.273c44.657,9.416,90.867,8.47,135.142-2.595v-60.746
		l0,0c32.794,32.794,69.727,61.223,110.167,83.925c23.292,13.078,46.037,30.008,46.037,46.245c0,34.712-95.458,52.068-95.458,52.068
		H277.695z"/>
	<path style="fill:#E4E5E6;" d="M119.013,282.034h-75.62c-23.969,0-43.39,19.43-43.39,43.39s19.421,43.39,43.39,43.39h138.847
		c23.96,0,43.39-19.43,43.39-43.39c0-7.802-2.23-15.013-5.832-21.339C186.536,296.804,168.373,292.829,119.013,282.034"/>
	<g>
		<path style="fill:#F0C419;" d="M455.352,256h45.915c-5.537-12.279-21.669-24.489-39.033-34.712h-63.045l0,0
			C409.827,242.558,431.566,256,455.352,256"/>
		<path style="fill:#F0C419;" d="M211.981,197.846c-32.299-6.812-65.857-13.043-73.129-11.273
			c-14.831,3.619-7.055,18.987,8.678,34.712c15.993,0,64.087,3.081,86.78-19.612v-0.104
			C226.838,200.58,219.383,199.408,211.981,197.846"/>
	</g>
	<g>
		<path style="fill:#922C25;" d="M355.797,282.034h-52.068c-4.799,0-8.678-3.879-8.678-8.678s3.879-8.678,8.678-8.678h52.068
			c4.799,0,8.678,3.879,8.678,8.678S360.596,282.034,355.797,282.034"/>
		<path style="fill:#922C25;" d="M355.797,247.322h-52.068c-4.799,0-8.678-3.879-8.678-8.678s3.879-8.678,8.678-8.678h52.068
			c4.799,0,8.678,3.879,8.678,8.678S360.596,247.322,355.797,247.322"/>
	</g>
	<g>
		<path style="fill:#BDBFC1;" d="M78.102,325.424c0-9.589-7.767-17.356-17.356-17.356s-17.356,7.767-17.356,17.356
			s7.767,17.356,17.356,17.356S78.102,335.013,78.102,325.424"/>
		<path style="fill:#BDBFC1;" d="M130.169,325.424c0-9.589-7.767-17.356-17.356-17.356s-17.356,7.767-17.356,17.356
			s7.767,17.356,17.356,17.356S130.169,335.013,130.169,325.424"/>
		<path style="fill:#BDBFC1;" d="M182.237,325.424c0-9.589-7.767-17.356-17.356-17.356c-9.589,0-17.356,7.767-17.356,17.356
			s7.767,17.356,17.356,17.356C174.471,342.78,182.237,335.013,182.237,325.424"/>
	</g>
</g>
<g>
</g>
<g>
</g>
<g>
</g>
<g>
</g>
<g>
</g>
<g>
</g>
<g>
</g>
<g>
</g>
<g>
</g>
<g>
</g>
<g>
</g>
<g>
</g>
<g>
</g>
<g>
</g>
<g>
</g>
</svg>
