<svg height="511pt" viewBox="0 -48 511.99972 511" width="511pt" xmlns="http://www.w3.org/2000/svg"><path d="m422.398438 347.808594c3.433593 0 6.71875.621094 9.761718 1.746094v-55.160157h-26.410156v58.847657c4.664062-3.414063 10.417969-5.433594 16.648438-5.433594zm0 0" fill="#e69052"/><path d="m489.53125 377.933594c-1.542969-.019532-3.035156.195312-4.4375.609375-1.84375.546875-3.839844-.394531-4.574219-2.171875-3.339843-8.054688-11.132812-13.882813-20.210937-14.324219-2.867188-.136719-5.625.25-8.1875 1.074219-2.167969.695312-4.472656-.300782-5.589844-2.289063-4.886719-8.675781-14.160156-14.542969-24.828125-14.542969-13.195313 0-24.25 8.976563-27.496094 21.144532l24.730469 40.800781h70.40625c8.574219 0 15.484375-7.125 15.140625-15.773437-.320313-7.953126-6.996094-14.433594-14.953125-14.527344zm0 0" fill="#6dc296"/><path d="m473.558594 407.398438c-.445313-14.957032-13.113282-26.667969-28.078125-26.667969h-11.019531c-5.023438 0-9.679688-2.621094-12.28125-6.917969l-14.453126-23.839844c-6.574218 3.722656-11.523437 9.984375-13.519531 17.460938l24.730469 40.796875h54.621094c0-.277344.007812-.550781 0-.832031zm0 0" fill="#5fa77e"/><path d="m493.917969 290.375c-4.832031-17.234375-12.652344-36.851562-22.964844-53.621094-1.625-2.640625.277344-6.035156 3.378906-6.035156h14.734375c2.90625 0 4.832032-3.015625 3.601563-5.648438-5.175781-11.070312-17.414063-36.273437-30.425781-56.023437-1.742188-2.644531.144531-6.15625 3.3125-6.15625h12.933593c3.023438 0 4.9375-3.234375 3.480469-5.882813-7.699219-14.019531-29.207031-50.664062-60.148438-83.289062-1.550781-1.636719-4.175781-1.636719-5.726562 0-12.59375 13.273438-24.621094 27.214844-33.792969 40.027344 11.472657 16.792968 19.503907 30.875 23.382813 38.003906 1.234375 2.265625-.410156 5.023438-2.988282 5.023438h-16.203124c-2.726563 0-4.332032 3.035156-2.820313 5.300781 14.332031 21.480469 27.90625 49.683593 33.085937 60.828125 1.046876 2.253906-.601562 4.828125-3.085937 4.828125h-17.945313c-2.667968 0-4.300781 2.933593-2.886718 5.195312 11.332031 18.09375 19.855468 39.535157 24.992187 58.179688.59375 2.160156-1.042969 4.289062-3.285156 4.289062h75.542969c2.617187 0 4.535156-2.496093 3.828125-5.019531zm0 0" fill="#92e0c0"/><path d="m414.546875 295.394531h24.136719c.46875-3.175781.296875-6.453125-.570313-9.597656-3.765625-13.671875-8.75-27.230469-14.570312-39.796875 4.398437-1.796875 8.203125-4.925781 10.855469-9.082031 4.320312-6.769531 4.878906-15.160157 1.496093-22.445313-3.664062-7.886718-11.402343-24.046875-20.75-40.710937 3.527344-1.980469 6.546875-4.863281 8.667969-8.433594 4.195312-7.058594 4.363281-15.921875.4375-23.140625-4.886719-8.976562-14.65625-25.976562-28.542969-45.660156-4.882812 5.855468-9.414062 11.644531-13.40625 17.21875 11.46875 16.792968 19.5 30.871094 23.378907 38.003906 1.234374 2.265625-.40625 5.019531-2.988282 5.019531h-16.203125c-2.722656 0-4.332031 3.035157-2.820312 5.304688 14.335937 21.480469 27.90625 49.679687 33.085937 60.824219 1.046875 2.257812-.601562 4.832031-3.085937 4.832031h-17.941407c-2.667968 0-4.300781 2.933593-2.886718 5.195312 11.332031 18.09375 19.855468 39.535157 24.992187 58.179688.59375 2.160156-1.042969 4.289062-3.285156 4.289062zm0 0" fill="#6dc296"/><path d="m276.585938 156.769531h16.203124c2.722657 0 4.332032 3.035157 2.820313 5.304688-4.347656 6.507812-9.617187 13.636719-13.609375 20.71875l68.257812 112.601562h65.289063c2.242187 0 3.878906-2.128906 3.285156-4.289062-5.136719-18.644531-13.660156-40.082031-24.988281-58.179688-1.417969-2.261719.214844-5.195312 2.882812-5.195312h17.945313c2.484375 0 4.132813-2.574219 3.082031-4.828125-5.179687-11.148438-18.75-39.347656-33.085937-60.828125-1.511719-2.265625.097656-5.304688 2.820312-5.304688h16.203125c2.582032 0 4.222656-2.753906 2.988282-5.019531-7.511719-13.808594-30.554688-53.648438-64.089844-88.839844-1.332032-1.398437-3.574219-1.398437-4.90625 0-33.53125 35.191406-56.574219 75.03125-64.089844 88.839844-1.230469 2.265625.410156 5.019531 2.992188 5.019531zm0 0" fill="#92e0c0"/><path d="m276.585938 156.769531h14.027343l-10.253906-16.914062c-2.90625 4.921875-5.183594 8.988281-6.765625 11.890625-1.230469 2.269531.410156 5.023437 2.992188 5.023437zm0 0" fill="#56bb98"/><path d="m350.257812 295.394531h24.386719l-79.972656-131.933593c-4.152344 6.128906-8.960937 12.746093-12.671875 19.332031zm0 0" fill="#6dc296"/><path d="m419.65625 408.230469h-385.746094l180.089844-297.09375c2.710938-4.46875 7.554688-7.195313 12.78125-7.195313s10.074219 2.726563 12.78125 7.195313zm0 0" fill="#fcb75b"/><path d="m419.65625 408.230469h-385.746094l180.089844-297.09375c2.710938-4.46875 7.554688-7.195313 12.78125-7.195313s10.074219 2.726563 12.78125 7.195313zm0 0" fill="#f1c850"/><path d="m236.789062 107.792969c-2.710937-2.441407-6.257812-3.851563-10.007812-3.851563-5.226562 0-10.070312 2.726563-12.78125 7.195313l-180.089844 297.09375h20.011719l180.089844-297.09375c.765625-1.261719 1.707031-2.378907 2.777343-3.34375zm0 0" fill="#fcb75b"/><path d="m226.78125 103.9375c-4.933594 0-9.871094 2.402344-12.78125 7.199219l-180.089844 297.09375h192.871094zm0 0" fill="#eaa82f"/><path d="m226.78125 103.941406c-4.9375 0-9.871094 2.398438-12.78125 7.195313l-180.089844 297.09375h20.332032l172.539062-284.632813zm0 0" fill="#e69052"/><path d="m156.246094 345.9375v62.292969l70.535156-70.535157h-62.292969c-4.550781 0-8.242187 3.691407-8.242187 8.242188zm0 0" fill="#f1c850"/><path d="m142.34375 75.914062c0 19.273438-15.625 34.898438-34.898438 34.898438-19.273437 0-34.898437-15.625-34.898437-34.898438 0-19.273437 15.625-34.898437 34.898437-34.898437 19.273438 0 34.898438 15.625 34.898438 34.898437zm0 0" fill="#f1c850"/><path d="m92.546875 75.914062c0-15.796874 10.5-29.136718 24.898437-33.4375-3.167968-.945312-6.523437-1.460937-10-1.460937-19.273437 0-34.898437 15.625-34.898437 34.898437 0 19.273438 15.625 34.898438 34.898437 34.898438 3.476563 0 6.832032-.515625 10-1.464844-14.398437-4.296875-24.898437-17.636718-24.898437-33.433594zm0 0" fill="#eaa82f"/><path d="m226.78125 337.695312-70.535156 70.535157h70.535156zm0 0" fill="#afb5bc"/><path d="m226.78125 337.695312-70.535156 70.535157h21l49.535156-49.535157zm0 0" fill="#969a9f"/><g fill="#e69052"><path d="m107.449219 28.824219c-4.144531 0-7.503907-3.359375-7.503907-7.503907v-13.320312c0-4.140625 3.359376-7.5 7.503907-7.5 4.140625 0 7.5 3.359375 7.5 7.5v13.320312c0 4.144532-3.359375 7.503907-7.5 7.503907zm0 0"/><path d="m107.449219 151.328125c-4.144531 0-7.503907-3.359375-7.503907-7.5v-13.324219c0-4.140625 3.359376-7.5 7.503907-7.5 4.140625 0 7.5 3.359375 7.5 7.5v13.324219c0 4.140625-3.359375 7.5-7.5 7.5zm0 0"/><path d="m68.847656 44.8125c-1.921875 0-3.839844-.730469-5.304687-2.195312l-9.421875-9.421876c-2.929688-2.929687-2.929688-7.679687 0-10.605468 2.929687-2.929688 7.679687-2.929688 10.609375 0l9.417969 9.417968c2.929687 2.929688 2.929687 7.679688 0 10.609376-1.464844 1.464843-3.382813 2.195312-5.300782 2.195312zm0 0"/><path d="m155.46875 131.4375c-1.917969 0-3.839844-.734375-5.300781-2.199219l-9.421875-9.417969c-2.929688-2.929687-2.929688-7.675781 0-10.605468 2.929687-2.929688 7.679687-2.929688 10.605468 0l9.421876 9.417968c2.929687 2.929688 2.929687 7.675782 0 10.605469-1.464844 1.464844-3.382813 2.199219-5.304688 2.199219zm0 0"/><path d="m52.855469 83.414062h-13.320313c-4.144531 0-7.5-3.355468-7.5-7.5 0-4.140624 3.355469-7.5 7.5-7.5h13.320313c4.144531 0 7.5 3.359376 7.5 7.5 0 4.144532-3.355469 7.5-7.5 7.5zm0 0"/><path d="m175.363281 83.414062h-13.324219c-4.140624 0-7.5-3.355468-7.5-7.5 0-4.140624 3.359376-7.5 7.5-7.5h13.324219c4.140625 0 7.5 3.359376 7.5 7.5 0 4.144532-3.359375 7.5-7.5 7.5zm0 0"/><path d="m59.425781 131.4375c-1.917969 0-3.839843-.734375-5.304687-2.199219-2.929688-2.929687-2.929688-7.675781 0-10.605469l9.421875-9.417968c2.929687-2.929688 7.679687-2.929688 10.605469 0 2.929687 2.929687 2.929687 7.675781 0 10.605468l-9.417969 9.417969c-1.464844 1.464844-3.386719 2.199219-5.304688 2.199219zm0 0"/><path d="m146.050781 44.8125c-1.921875 0-3.839843-.730469-5.304687-2.195312-2.929688-2.929688-2.929688-7.679688 0-10.609376l9.421875-9.417968c2.929687-2.929688 7.675781-2.929688 10.605469 0 2.929687 2.925781 2.929687 7.675781 0 10.605468l-9.421876 9.421876c-1.464843 1.464843-3.382812 2.195312-5.300781 2.195312zm0 0"/></g><path d="m511.980469 392.289062c-.277344-6.9375-3.722657-13.273437-9.449219-17.378906-4.785156-3.429687-10.5625-4.824218-16.242188-4-6.523437-12.015625-20.527343-18.34375-33.824218-15.167968-3.25-5.054688-7.679688-9.132813-12.800782-11.964844v-40.882813h50.429688c3.625 0 6.957031-1.65625 9.148438-4.542969 2.183593-2.878906 2.875-6.523437 1.902343-10-4.972656-17.742187-12.210937-35.304687-20.617187-50.136718h8.542968c3.945313 0 7.5625-1.984375 9.683594-5.3125 2.113282-3.324219 2.378906-7.4375.710938-11.007813-4.40625-9.429687-15.355469-32.105469-27.453125-51.503906h6.480469c4.097656 0 7.789062-2.105469 9.875-5.632813 2.085937-3.523437 2.152343-7.773437.179687-11.363281-7.941406-14.453125-29.804687-51.648437-61.28125-84.839843-2.152344-2.265626-5.179687-3.5625-8.308594-3.5625-3.128906 0-6.15625 1.300781-8.304687 3.566406-9.230469 9.730468-18.339844 20.582031-27.179688 32.3125-9.898437-13.8125-21.804687-28.816406-35.445312-43.128906-2.042969-2.148438-4.917969-3.378907-7.882813-3.378907-2.96875 0-5.84375 1.230469-7.882812 3.378907-31.578125 33.132812-53.855469 69.960937-63.453125 87.164062l-22.824219-37.652344c-4.105469-6.769531-11.28125-10.8125-19.199219-10.8125-.667968 0-1.332031.039063-1.992187.097656-.601563.050782-1.203125.128907-1.792969.226563-6.375 1.070313-11.972656 4.816406-15.410156 10.484375l-177.902344 293.480469h-22.1875c-4.140625 0-7.5 3.359375-7.5 7.5 0 4.144531 3.359375 7.5 7.5 7.5h431.1875c4.140625 0 7.5-3.355469 7.5-7.5 0-4.140625-3.359375-7.5-7.5-7.5h-14.804688l-20.519531-33.851563c1.605469-3.746094 4.257813-6.875 7.546875-9.074218.027344-.019532.054688-.039063.082032-.058594.394531-.257813.796874-.507813 1.207031-.738282.019531-.011718.039062-.023437.0625-.039062.417969-.234375.847656-.457031 1.285156-.664062.007813-.003907.011719-.007813.019531-.011719.449219-.210938.902344-.40625 1.363282-.585938.464843-.183593.9375-.34375 1.417968-.492187.007813-.003906.019532-.007813.027344-.007813.46875-.144531.941406-.273437 1.421875-.378906.050781-.011719.101563-.019531.152344-.03125.441406-.097656.886719-.183594 1.335937-.253906.15625-.023438.316406-.035157.476563-.054688.351562-.046875.699219-.09375 1.054687-.121093.523438-.039063 1.050782-.0625 1.582032-.0625.550781 0 1.097656.03125 1.640624.074218.179688.011719.355469.035156.535157.054688.371093.039062.746093.085937 1.113281.148437.195312.03125.390625.0625.582031.097657.417969.082031.832031.175781 1.246094.28125.148437.039062.300781.074218.449219.113281.460937.132812.921875.28125 1.378906.441406 4.644531 1.664063 8.640625 4.953125 11.140625 9.390625 2.855469 5.078125 8.902344 7.488281 14.375 5.730469 7.554687-2.425781 15.867187 1.46875 18.933594 8.871093 2.207031 5.328126 8.050781 8.113282 13.589843 6.476563 2.988282-.878906 5.300782.320313 6.40625 1.117187 1.945313 1.390626 3.109376 3.5 3.203126 5.789063.082031 2.074219-.660157 4.039063-2.089844 5.527344-1.433594 1.492187-3.359375 2.3125-5.425782 2.3125h-15.789062c-4.140625 0-7.5 3.359375-7.5 7.5s3.359375 7.5 7.5 7.5h15.789062c6.1875 0 11.953126-2.457031 16.242188-6.917969s6.511719-10.332031 6.261719-16.523438zm-87.316407-52.910156c-.671874-.042968-1.347656-.058594-2.019531-.066406-.082031 0-.164062-.007812-.246093-.007812-.101563 0-.199219.007812-.300782.007812-.269531 0-.542968.007812-.8125.015625-.210937.007813-.425781.015625-.640625.023437-.304687.015626-.609375.035157-.910156.058594-.167969.015625-.339844.023438-.507813.039063-.382812.035156-.765624.074219-1.144531.121093-.078125.011719-.15625.019532-.230469.027344-1.558593.199219-3.097656.492188-4.597656.886719v-37.589844h11.410156zm-5.707031-257.75c25.691407 27.75 44.4375 57.898438 53.507813 73.757813h-6.910156c-4.222657 0-8.09375 2.3125-10.09375 6.027343-2.003907 3.722657-1.804688 8.226563.523437 11.761719 11.105469 16.851563 21.765625 38.0625 27.507813 50.039063h-9.15625c-4.148438 0-7.984376 2.25-10.011719 5.871094-2.019531 3.621093-1.929688 8.066406.242187 11.597656 8.320313 13.523437 15.632813 30.136718 20.816406 47.210937h-59.65625c-.140624-.492187-.285156-.984375-.429687-1.476562-.125-.445313-.253906-.886719-.382813-1.328125-.214843-.730469-.433593-1.460938-.65625-2.1875-.140624-.457032-.277343-.914063-.417968-1.371094-.222656-.710938-.449219-1.417969-.675782-2.125-.152343-.472656-.300781-.945312-.457031-1.417969-.222656-.691406-.457031-1.378906-.6875-2.066406-.164062-.484375-.324219-.96875-.488281-1.449219-.234375-.671875-.46875-1.339844-.707031-2.011718-.175781-.496094-.347657-.992188-.527344-1.484376-.234375-.652343-.472656-1.300781-.714844-1.953124-.1875-.503907-.371093-1.007813-.5625-1.511719-.238281-.632813-.484375-1.265625-.730469-1.898438-.195312-.511719-.394531-1.027343-.59375-1.535156-.242187-.617187-.492187-1.230469-.742187-1.84375-.207031-.519531-.414063-1.039063-.625-1.554687-.25-.605469-.507813-1.203126-.761719-1.804688-.214844-.515625-.429687-1.035156-.652344-1.550781-.253906-.585938-.511718-1.167969-.769531-1.753907-.226562-.523437-.453125-1.046874-.6875-1.5625-.253906-.570312-.511719-1.132812-.769531-1.695312-.242188-.527344-.480469-1.054688-.722656-1.574219-.265625-.566406-.53125-1.121093-.800782-1.679687-.242187-.511719-.484374-1.027344-.730468-1.535156-.273438-.566407-.554688-1.121094-.832032-1.683594-.246093-.496094-.488281-.992188-.738281-1.480469-.285156-.570313-.578125-1.128906-.871093-1.695313-.242188-.46875-.484376-.945312-.730469-1.410156-.339844-.648437-.683594-1.28125-1.027344-1.917968-.203125-.375-.402344-.753907-.605469-1.125-.550781-1.003907-1.105468-2-1.667968-2.980469h10.710937c3.742187 0 7.179687-1.882813 9.191406-5.039063.25-.394531.476563-.800781.671875-1.214844.023438-.046874.035156-.097656.058594-.144531.359375-.789062.628906-1.605469.789062-2.441406.429688-2.210937.160157-4.53125-.824218-6.652344-4.75-10.226562-16.5-34.671875-29.539063-55.46875h8.675781c3.882813 0 7.386719-1.992187 9.371094-5.332031.375-.625.65625-1.28125.894532-1.945312.078124-.222657.171874-.441407.234374-.667969h.003907c.769531-2.699219.464843-5.605469-.929688-8.164063-.234375-.433594-.488281-.898437-.757812-1.382812-.171875-.316406-.359375-.648438-.539063-.980469-.074218-.128906-.140625-.253906-.214844-.386719-4.089843-7.359375-10.613281-18.511718-19.292968-31.527344 8.609375-11.710937 17.492187-22.53125 26.492187-32.253906zm-78.8125-10.375c14.542969 15.667969 26.941407 32.023438 36.808594 46.449219.054687.089844.097656.1875.15625.273437 8.640625 12.652344 15.289063 23.722657 19.605469 31.292969h-9.222656c-2.015626 0-3.941407.550781-5.601563 1.546875s-3.058594 2.433594-4.003906 4.207032c-.9375 1.753906-1.359375 3.683593-1.28125 5.59375.003906.027343 0 .058593 0 .085937.007812.164063.039062.324219.054687.484375.167969 1.773438.746094 3.507812 1.773438 5.046875 11.980468 17.957031 23.488281 40.851563 29.773437 53.996094h-11.480469c-3.441406 0-6.648437 1.628906-8.691406 4.328125-.011718.019531-.03125.035156-.046875.054687-.292969.390625-.558593.804688-.800781 1.238281-1.40625 2.542969-1.707031 5.496094-.945312 8.214844.015624.058594.023437.121094.042968.183594.019532.066406.054688.132812.074219.203125.273437.847656.640625 1.675781 1.128906 2.453125.425781.683594.847657 1.378906 1.269531 2.074219.144532.234375.285157.464843.429688.699219.328125.550781.652344 1.113281.976562 1.671874.238282.40625.476563.808594.714844 1.21875.296875.519532.585938 1.050782.878906 1.574219.261719.464844.523438.925781.78125 1.394531.28125.511719.558594 1.035157.835938 1.554688.261719.492188.527344.980469.789062 1.476562.273438.519532.539063 1.046876.808594 1.574219.261719.507813.523438 1.011719.78125 1.523438.261719.527343.523438 1.058593.78125 1.589843.257813.519532.515625 1.042969.769532 1.570313.257812.527344.507812 1.066406.757812 1.601563.253906.539062.507812 1.074218.757812 1.617187.246094.535156.488282 1.074219.730469 1.613281.25.550782.496094 1.097656.742188 1.648438.238281.546875.476562 1.097656.710937 1.648437.242188.554688.480469 1.105469.714844 1.664063.234375.554687.464844 1.113281.695312 1.671875.230469.558593.460938 1.121093.6875 1.6875.230469.5625.453126 1.128906.675782 1.695312.222656.5625.441406 1.128907.660156 1.695313.222656.574218.441406 1.152344.660156 1.734375.210938.5625.417969 1.121093.625 1.683593.21875.589844.429688 1.183594.644532 1.777344.199218.554688.394531 1.113282.589843 1.671875.210938.605469.421875 1.210938.628907 1.820313.1875.546875.371093 1.097656.554687 1.648437.207031.621094.410156 1.246094.609375 1.871094.171875.535156.34375 1.070313.515625 1.609375.199219.644531.402344 1.289062.597656 1.9375.078125.253906.15625.511719.234375.769531h-54.613281l-63.78125-105.214843c3.53125-6.113282 6.933594-11.632813 10.144531-16.445313 2.242188-3.359375 2.453125-7.652344.550782-11.210937-1.898438-3.546876-5.578126-5.753907-9.605469-5.753907h-9.230469c9.675781-16.996093 29.378906-48.710937 56.582031-78.015625zm-54.882812 93.019532c-.78125 1.25-1.578125 2.542968-2.375 3.859374l-2.339844-3.859374zm121.078125 236.457031h-172.054688v-283.835938zm-187.054688-283.835938v213.300781h-54.792968c-8.679688 0-15.742188 7.0625-15.742188 15.742188v54.792969h-101.519531zm-10.605468 228.300781-44.929688 44.929688v-44.1875c0-.410156.332031-.742188.742188-.742188zm-34.320313 55.535157 44.925781-44.925781v44.925781zm190.21875-97.835938h33.671875v45.84375c-1.28125 1.175781-2.476562 2.445313-3.578125 3.804688zm0 0" fill="#474d54"/><path d="m107.449219 118.3125c14.691406 0 28.128906-7.445312 35.941406-19.917969 2.199219-3.511719 1.136719-8.140625-2.375-10.339843-3.507813-2.199219-8.136719-1.132813-10.335937 2.375-5.054688 8.066406-13.738282 12.882812-23.230469 12.882812-15.109375 0-27.398438-12.292969-27.398438-27.398438 0-15.105468 12.289063-27.398437 27.398438-27.398437 10.101562 0 19.351562 5.535156 24.144531 14.445313 1.960938 3.648437 6.511719 5.015624 10.160156 3.054687 3.648438-1.960937 5.015625-6.511719 3.050782-10.160156-7.410157-13.777344-21.726563-22.339844-37.355469-22.339844-23.378907 0-42.398438 19.019531-42.398438 42.398437 0 23.378907 19.019531 42.398438 42.398438 42.398438zm0 0" fill="#474d54"/></svg>